<svg width="31" height="30" viewBox="0 0 31 30" fill="none" xmlns="http://www.w3.org/2000/svg">
<path d="M9.57499 23.6127C9.47499 23.6127 9.37501 23.6002 9.27501 23.5877C8.52501 23.4877 7.8875 23.0127 7.575 22.3377L5.99999 18.8752C3.49999 17.0252 2.0625 14.2627 2.0625 11.2627C2.0625 5.9252 6.6875 1.5752 12.375 1.5752C16.3875 1.5752 20.05 3.77518 21.7125 7.18768C22.35 8.45018 22.6875 9.8252 22.6875 11.2627C22.6875 16.4627 18.3 20.7252 12.825 20.9377L11.25 22.8377C10.825 23.3252 10.2125 23.6127 9.57499 23.6127ZM12.375 3.43768C7.725 3.43768 3.9375 6.93768 3.9375 11.2502C3.9375 13.7127 5.16249 15.9877 7.28749 17.4877C7.42499 17.5877 7.53749 17.7127 7.59999 17.8627L9.27501 21.5502C9.33751 21.6877 9.4625 21.7252 9.525 21.7252C9.5875 21.7377 9.7125 21.7252 9.8 21.6252L11.65 19.4002C11.825 19.1877 12.0875 19.0627 12.375 19.0627C17.025 19.0627 20.8125 15.5627 20.8125 11.2502C20.8125 10.1127 20.55 9.02515 20.0375 8.01265C18.6875 5.22515 15.675 3.43768 12.375 3.43768Z" fill="white"/>
<path d="M21.4251 28.4376C20.7751 28.4376 20.1751 28.1501 19.7501 27.6501L18.1751 25.7626C15.1501 25.6376 12.3001 24.2501 10.4751 22.0001C10.1876 21.6501 10.2001 21.1502 10.4876 20.8127L11.6501 19.4127C11.8251 19.2002 12.0876 19.0751 12.3751 19.0751C17.0251 19.0751 20.8126 15.5751 20.8126 11.2626C20.8126 10.1251 20.5501 9.03761 20.0376 8.02511C19.8751 7.70011 19.9126 7.31263 20.1376 7.02513C20.3626 6.73763 20.7376 6.61261 21.0876 6.68761C25.7126 7.75011 28.9376 11.6126 28.9376 16.0876C28.9376 19.0876 27.5001 21.8502 25.0001 23.7002L23.4251 27.1626C23.1001 27.8626 22.4626 28.3376 21.7001 28.4251C21.6126 28.4376 21.5126 28.4376 21.4251 28.4376ZM12.4501 21.3751C14.0126 22.9626 16.2626 23.8876 18.6251 23.8876C18.9001 23.8876 19.1626 24.0126 19.3501 24.2251L21.2001 26.4501C21.2876 26.5626 21.4001 26.5751 21.4751 26.5626C21.5251 26.5626 21.6626 26.5251 21.7376 26.3751L23.4126 22.6877C23.4876 22.5377 23.5876 22.4001 23.7251 22.3126C25.8501 20.8126 27.0751 18.5376 27.0751 16.0751C27.0751 13.0751 25.2376 10.4127 22.4376 9.10017C22.6126 9.80017 22.7001 10.5126 22.7001 11.2501C22.7001 16.4501 18.3126 20.7126 12.8376 20.9251L12.4501 21.3751Z" fill="white"/>
<path d="M15.5 12.1875H9.25C8.7375 12.1875 8.3125 11.7625 8.3125 11.25C8.3125 10.7375 8.7375 10.3125 9.25 10.3125H15.5C16.0125 10.3125 16.4375 10.7375 16.4375 11.25C16.4375 11.7625 16.0125 12.1875 15.5 12.1875Z" fill="white"/>
</svg>
